<?xml version="1.0" encoding="UTF-8"?>
<svg xmlns="http://www.w3.org/2000/svg" xmlns:xlink="http://www.w3.org/1999/xlink" width="255.2pt" height="645.8pt" viewBox="0 0 255.2 645.8" version="1.1">
<defs>
<clipPath id="clip1">
  <path d="M 0 590 L 255.199219 590 L 255.199219 645.800781 L 0 645.800781 Z M 0 590 "/>
</clipPath>
<clipPath id="clip2">
  <path d="M 0 227 L 255.199219 227 L 255.199219 283 L 0 283 Z M 0 227 "/>
</clipPath>
</defs>
<g id="surface1">
<path style=" stroke:none;fill-rule:evenodd;fill:rgb(0%,0%,0%);fill-opacity:1;" d="M 205.699219 420.804688 C 206.714844 428.164063 217.878906 438.058594 220.921875 437.804688 C 222.953125 437.804688 223.714844 428.289063 223.714844 420.804688 C 223.714844 416.492188 223.96875 413.195313 221.683594 412.433594 C 218.132813 419.664063 208.746094 421.058594 205.699219 420.804688 Z M 206.335938 417.507813 C 214.453125 417.507813 221.8125 411.035156 221.8125 405.328125 C 221.8125 402.789063 220.539063 400.507813 217.371094 400.121094 C 217.878906 400.886719 218.132813 401.394531 218.132813 402.664063 C 218.132813 406.976563 211.664063 411.671875 204.558594 411.671875 C 202.023438 411.671875 201.132813 413.445313 201.132813 414.335938 C 201.132813 416.617188 203.289063 417.507813 206.335938 417.507813 Z M 204.558594 408.753906 C 203.539063 408.753906 202.023438 408.753906 201.132813 406.976563 C 200.371094 405.578125 200.621094 403.425781 199.359375 402.410156 C 200.621094 402.789063 202.023438 402.789063 203.164063 402.789063 C 206.589844 402.789063 210.011719 400.378906 212.550781 400.378906 C 214.199219 400.378906 214.828125 401.394531 214.828125 402.535156 C 214.828125 405.960938 207.855469 408.753906 204.558594 408.753906 Z M 30.777344 469.648438 C 33.441406 469.648438 32.933594 453.535156 37.246094 453.535156 C 38.261719 453.535156 38.515625 454.550781 38.515625 455.691406 C 38.515625 459.371094 36.738281 464.699219 36.738281 467.746094 C 36.738281 469.140625 37.117188 469.648438 37.753906 469.648438 C 39.65625 469.648438 42.953125 451.886719 46.121094 451.886719 C 47.140625 451.886719 47.648438 452.902344 47.648438 453.914063 C 47.648438 457.597656 42.828125 468.378906 42.828125 471.296875 C 42.828125 471.804688 43.082031 472.1875 43.460938 472.1875 C 45.363281 472.1875 49.292969 463.8125 50.4375 459.621094 C 51.199219 457.46875 52.085938 456.328125 52.976563 456.328125 C 53.734375 456.328125 54.496094 457.089844 54.496094 458.863281 C 54.496094 463.050781 50.566406 472.945313 47.140625 479.539063 C 44.476563 484.746094 40.414063 492.101563 40.414063 496.164063 C 40.414063 498.320313 40.792969 500.476563 43.84375 503.140625 C 38.769531 502.761719 36.867188 502.378906 34.960938 498.445313 C 26.589844 515.066406 50.183594 513.414063 42.191406 528.132813 C 40.667969 525.46875 28.996094 522.679688 28.996094 507.328125 C 28.996094 494.007813 40.667969 486.269531 40.667969 480.6875 C 40.667969 479.671875 40.289063 478.78125 39.277344 477.894531 C 36.738281 475.738281 36.613281 473.960938 34.582031 473.960938 C 33.1875 473.960938 31.410156 477.386719 33.1875 480.304688 C 33.820313 481.320313 34.457031 481.953125 34.457031 482.96875 C 34.457031 485.121094 31.03125 490.960938 28.621094 490.960938 C 26.210938 490.960938 24.308594 484.996094 24.308594 475.355469 C 24.308594 466.730469 26.210938 458.105469 28.621094 458.105469 C 29.382813 458.105469 29.636719 458.609375 29.636719 459.246094 C 29.636719 460.261719 29.253906 462.289063 29.253906 465.714844 C 29.253906 469.269531 30.140625 469.648438 30.777344 469.648438 Z M 149.886719 393.277344 C 151.027344 393.277344 151.28125 396.320313 151.535156 398.097656 C 151.664063 398.984375 151.914063 399.113281 152.296875 399.113281 C 153.183594 399.113281 154.703125 395.558594 155.722656 395.558594 C 157.117188 395.558594 161.050781 399.617188 167.773438 399.617188 C 177.160156 399.617188 185.914063 393.023438 185.914063 381.351563 C 185.914063 370.058594 178.046875 363.460938 167.140625 363.460938 C 161.9375 363.460938 158.132813 366.121094 156.101563 366.121094 C 154.835938 366.121094 152.933594 363.078125 152.039063 363.078125 C 151.664063 363.078125 151.28125 363.84375 151.28125 365.113281 C 151.28125 365.996094 151.28125 368.664063 150.269531 368.664063 C 148.492188 368.664063 141.261719 363.335938 141.261719 365.238281 C 141.261719 367.015625 146.078125 372.46875 146.078125 373.867188 C 146.078125 375.261719 141.261719 376.65625 141.261719 377.539063 C 141.261719 379.320313 146.335938 379.574219 146.335938 381.730469 C 146.335938 383.886719 141.007813 385.664063 141.007813 387.3125 C 141.007813 388.578125 146.335938 387.695313 146.335938 389.34375 C 146.335938 390.992188 142.402344 396.320313 142.402344 397.96875 C 142.402344 398.351563 142.53125 398.351563 142.910156 398.351563 C 144.304688 398.351563 148.746094 393.277344 149.886719 393.277344 Z M 50.183594 508.089844 C 50.058594 506.566406 51.199219 505.039063 52.847656 504.914063 C 54.496094 504.664063 55.894531 505.933594 56.019531 507.578125 C 56.273438 509.230469 55.003906 510.621094 53.484375 510.878906 C 51.832031 510.878906 50.3125 509.738281 50.183594 508.089844 Z M 41.558594 510.496094 C 41.8125 513.164063 44.347656 515.191406 47.140625 514.8125 C 48.15625 514.8125 49.039063 514.433594 49.671875 514.050781 C 50.3125 516.589844 52.214844 518.109375 55.132813 517.855469 C 58.046875 517.601563 60.078125 515.191406 59.699219 512.273438 C 59.699219 511.515625 59.445313 511.007813 59.316406 510.496094 L 59.824219 510.371094 C 62.488281 510.117188 64.644531 507.578125 64.390625 504.914063 C 64.136719 502.121094 61.472656 500.097656 58.808594 500.351563 C 57.917969 500.601563 57.035156 500.855469 56.398438 501.363281 C 55.640625 499.078125 53.609375 497.179688 50.820313 497.558594 C 48.027344 497.6875 45.996094 500.351563 46.253906 503.140625 C 46.253906 503.648438 46.378906 504.15625 46.632813 504.789063 L 46.121094 504.789063 C 43.460938 505.171875 41.304688 507.453125 41.558594 510.496094 Z M 214.578125 368.03125 C 214.578125 369.039063 215.46875 369.933594 216.609375 369.933594 C 217.621094 369.933594 218.511719 369.039063 218.511719 368.03125 C 218.511719 366.886719 217.621094 366.121094 216.609375 366.121094 C 215.46875 366.121094 214.578125 366.886719 214.578125 368.03125 Z M 171.324219 441.609375 C 171.324219 443.515625 172.71875 444.910156 174.496094 444.910156 C 176.273438 444.910156 177.789063 443.515625 177.789063 441.609375 C 177.789063 439.835938 176.273438 438.441406 174.496094 438.441406 C 172.71875 438.441406 171.324219 439.835938 171.324219 441.609375 Z M 171.578125 451.507813 C 171.578125 453.535156 173.101563 455.058594 175.128906 455.058594 C 177.160156 455.058594 178.808594 453.535156 178.808594 451.507813 C 178.808594 449.476563 177.160156 447.828125 175.128906 447.828125 C 173.101563 447.828125 171.578125 449.476563 171.578125 451.507813 Z M 160.289063 458.105469 C 160.289063 461.023438 162.699219 463.433594 165.742188 463.433594 C 168.660156 463.433594 171.070313 461.023438 171.070313 458.105469 C 171.070313 455.058594 168.660156 452.648438 165.742188 452.648438 C 162.699219 452.648438 160.289063 455.058594 160.289063 458.105469 Z M 163.203125 447.066406 C 163.203125 448.84375 164.601563 450.238281 166.378906 450.238281 C 168.027344 450.238281 169.421875 448.84375 169.421875 447.066406 C 169.421875 445.414063 168.027344 444.023438 166.378906 444.023438 C 164.601563 444.023438 163.203125 445.414063 163.203125 447.066406 Z M 153.058594 453.28125 C 153.058594 455.058594 154.453125 456.453125 156.101563 456.453125 C 157.878906 456.453125 159.273438 455.058594 159.273438 453.28125 C 159.273438 451.632813 157.878906 450.238281 156.101563 450.238281 C 154.453125 450.238281 153.058594 451.632813 153.058594 453.28125 Z M 161.050781 435.140625 C 161.050781 437.804688 163.328125 440.089844 165.996094 440.089844 C 168.660156 440.089844 170.945313 437.804688 170.945313 435.140625 C 170.945313 432.476563 168.660156 430.195313 165.996094 430.195313 C 163.328125 430.195313 161.050781 432.476563 161.050781 435.140625 Z M 166.886719 425.621094 C 166.886719 427.277344 168.152344 428.539063 169.800781 428.539063 C 171.453125 428.539063 172.71875 427.277344 172.71875 425.621094 C 172.71875 423.976563 171.453125 422.578125 169.800781 422.578125 C 168.152344 422.578125 166.886719 423.976563 166.886719 425.621094 Z M 152.804688 432.984375 C 152.804688 434.632813 154.074219 436.027344 155.722656 436.027344 C 157.371094 436.027344 158.765625 434.632813 158.765625 432.984375 C 158.765625 431.460938 157.371094 430.066406 155.722656 430.066406 C 154.074219 430.066406 152.804688 431.460938 152.804688 432.984375 Z M 152.425781 443.132813 C 152.425781 445.796875 154.453125 447.828125 157.117188 447.828125 C 159.78125 447.828125 161.9375 445.796875 161.9375 443.132813 C 161.9375 440.46875 159.78125 438.441406 157.117188 438.441406 C 154.453125 438.441406 152.425781 440.46875 152.425781 443.132813 Z M 142.65625 448.078125 C 142.65625 450.492188 144.6875 452.523438 147.097656 452.523438 C 149.507813 452.523438 151.410156 450.492188 151.410156 448.078125 C 151.410156 445.671875 149.507813 443.640625 147.097656 443.640625 C 144.6875 443.640625 142.65625 445.671875 142.65625 448.078125 Z M 145.320313 437.171875 C 145.320313 438.820313 146.714844 440.214844 148.367188 440.214844 C 150.015625 440.214844 151.410156 438.820313 151.410156 437.171875 C 151.410156 435.394531 150.015625 433.996094 148.367188 433.996094 C 146.714844 433.996094 145.320313 435.394531 145.320313 437.171875 Z M 134.914063 551.730469 C 134.914063 553.378906 136.316406 554.773438 138.089844 554.773438 C 139.738281 554.773438 141.136719 553.378906 141.136719 551.730469 C 141.136719 549.953125 139.738281 548.558594 138.089844 548.558594 C 136.316406 548.558594 134.914063 549.953125 134.914063 551.730469 Z M 51.324219 422.960938 C 51.324219 424.613281 52.722656 426.007813 54.496094 426.007813 C 56.144531 426.007813 57.539063 424.613281 57.539063 422.960938 C 57.539063 421.1875 56.144531 419.789063 54.496094 419.789063 C 52.722656 419.789063 51.324219 421.1875 51.324219 422.960938 Z M 47.265625 415.984375 C 47.265625 417.632813 48.664063 419.027344 50.4375 419.027344 C 52.085938 419.027344 53.484375 417.632813 53.484375 415.984375 C 53.484375 414.203125 52.085938 412.8125 50.4375 412.8125 C 48.664063 412.8125 47.265625 414.203125 47.265625 415.984375 Z M 50.691406 492.355469 C 53.863281 492.355469 56.652344 489.945313 56.652344 484.617188 L 56.652344 476.753906 C 56.652344 473.703125 56.90625 470.28125 58.808594 467.871094 C 58.683594 468.886719 58.683594 469.902344 58.683594 470.914063 C 58.683594 477.640625 62.363281 482.203125 62.363281 488.679688 C 62.363281 491.089844 61.726563 492.355469 59.824219 492.355469 C 58.046875 492.355469 58.171875 490.835938 57.792969 490.835938 C 57.414063 490.835938 57.035156 491.722656 57.035156 492.863281 C 57.035156 494.515625 58.171875 497.050781 61.472656 497.050781 C 64.265625 497.050781 66.417969 494.515625 66.417969 491.597656 C 66.417969 484.617188 61.09375 476.878906 61.09375 469.394531 C 61.09375 466.097656 61.855469 463.941406 62.617188 462.289063 C 62.617188 477.769531 75.679688 488.933594 75.679688 495.402344 C 75.679688 496.925781 74.664063 498.066406 73.015625 498.066406 C 71.242188 498.066406 70.351563 496.671875 70.351563 495.527344 C 70.351563 495.019531 70.351563 494.894531 70.101563 494.894531 C 69.59375 494.894531 68.195313 496.414063 68.195313 498.445313 C 68.195313 500.984375 70.351563 504.15625 74.160156 504.15625 C 78.597656 504.15625 81.007813 500.351563 81.007813 497.050781 C 81.007813 488.933594 65.027344 476.496094 65.027344 463.304688 C 65.027344 461.148438 65.53125 457.46875 67.054688 454.679688 C 56.90625 461.273438 53.609375 470.027344 53.609375 477.769531 C 53.609375 484.363281 53.484375 487.789063 50.058594 487.789063 C 48.28125 487.789063 47.773438 486.140625 47.140625 486.140625 C 46.632813 486.140625 46.378906 487.535156 46.378906 487.914063 C 46.378906 490.835938 48.535156 492.355469 50.691406 492.355469 Z M 185.277344 414.84375 C 188.703125 414.84375 191.238281 413.195313 191.238281 412.304688 C 191.238281 411.925781 190.734375 411.796875 189.71875 411.796875 C 188.828125 411.796875 186.800781 411.671875 182.996094 411.035156 C 179.695313 410.527344 177.160156 409.261719 176.273438 409.261719 C 175.890625 409.261719 175.765625 409.386719 175.765625 409.640625 C 175.765625 411.671875 179.570313 414.84375 185.277344 414.84375 Z M 168.28125 404.945313 C 169.296875 404.3125 173.734375 405.328125 179.316406 402.535156 C 180.078125 402.15625 180.710938 401.902344 181.347656 401.902344 C 184.136719 401.902344 183.371094 405.074219 185.914063 405.074219 C 187.816406 405.074219 190.351563 403.425781 191.746094 403.425781 C 194.15625 403.425781 197.453125 410.78125 197.453125 414.203125 C 197.453125 418.140625 191.492188 420.550781 184.390625 420.550781 C 174.117188 420.550781 167.898438 411.539063 167.898438 405.703125 C 167.898438 405.199219 168.152344 405.074219 168.28125 404.945313 Z M 52.214844 521.664063 C 49.671875 522.296875 45.617188 526.355469 45.617188 532.699219 C 45.617188 540.3125 53.734375 552.109375 67.183594 552.109375 C 78.472656 552.109375 81.261719 544.246094 81.261719 538.914063 C 81.261719 527.246094 74.160156 518.996094 64.644531 518.996094 C 59.570313 518.996094 55.003906 522.679688 55.003906 528.261719 C 55.003906 533.335938 58.808594 541.074219 68.070313 541.074219 C 72.507813 541.074219 75.042969 537.902344 75.042969 534.347656 C 75.042969 530.925781 71.871094 526.101563 67.183594 526.101563 C 65.785156 526.101563 64.773438 526.992188 64.773438 528.515625 C 64.773438 530.289063 67.308594 532.191406 70.480469 532.191406 C 71.242188 532.191406 71.871094 532.066406 72.257813 531.9375 C 72.382813 532.066406 72.507813 532.445313 72.507813 532.828125 C 72.507813 534.601563 70.734375 535.746094 68.070313 535.746094 C 64.136719 535.746094 60.332031 532.699219 60.332031 528.132813 C 60.332031 525.214844 62.742188 523.3125 66.289063 523.3125 C 73.144531 523.3125 77.328125 529.402344 77.328125 535.492188 C 77.328125 541.074219 74.285156 544.246094 68.070313 544.246094 C 55.640625 544.246094 49.546875 533.078125 52.214844 521.664063 Z M 44.476563 437.296875 C 42.699219 437.679688 39.023438 439.835938 39.023438 443.769531 C 39.023438 446.558594 41.179688 448.335938 43.84375 448.335938 C 45.238281 448.335938 46.253906 448.078125 46.886719 447.574219 C 44.730469 445.414063 43.96875 443.132813 43.96875 440.851563 C 43.96875 439.199219 44.222656 438.1875 44.476563 437.296875 Z M 25.449219 438.3125 C 25.320313 438.695313 25.320313 439.074219 25.320313 439.453125 C 25.320313 443.132813 27.351563 445.164063 29.886719 445.164063 C 31.789063 445.164063 34.074219 444.023438 36.105469 441.484375 C 35.214844 441.609375 34.203125 441.609375 33.3125 441.609375 C 30.394531 441.609375 27.351563 440.851563 25.449219 438.3125 Z M 22.785156 445.289063 C 22.785156 451.121094 24.5625 453.914063 27.730469 453.914063 C 30.140625 453.914063 33.566406 452.140625 37.496094 448.714844 C 34.457031 449.476563 32.167969 449.859375 30.015625 449.859375 C 27.226563 449.859375 25.070313 448.84375 22.785156 445.289063 Z M 141.007813 567.207031 C 144.6875 567.207031 144.433594 566.953125 145.703125 566.953125 C 146.84375 566.953125 146.84375 567.589844 146.84375 568.09375 C 146.84375 569.746094 143.039063 571.902344 136.316406 571.902344 C 132.382813 571.902344 129.972656 569.746094 129.210938 567.460938 C 125.40625 569.996094 119.445313 572.15625 113.609375 572.15625 C 97.753906 572.15625 93.695313 565.304688 88.746094 563.019531 C 84.941406 561.371094 79.105469 564.667969 70.859375 555.535156 C 72.003906 555.789063 73.523438 555.914063 74.664063 555.914063 C 81.769531 555.914063 85.574219 552.363281 85.574219 546.78125 C 85.574219 546.148438 85.574219 545.261719 85.449219 544.621094 C 87.605469 545.511719 92.546875 549.191406 93.695313 555.789063 C 93.945313 556.546875 97.117188 557.3125 99.148438 557.3125 C 101.9375 557.3125 105.492188 556.167969 105.996094 551.476563 C 115.382813 550.714844 121.601563 545.261719 122.996094 538.28125 C 126.289063 539.296875 130.097656 542.34375 130.988281 543.863281 C 132.382813 543.484375 133.90625 543.230469 135.679688 543.230469 C 138.21875 543.230469 141.007813 543.738281 144.304688 544.753906 C 144.433594 543.738281 144.6875 542.46875 146.203125 542.46875 C 148.492188 542.46875 147.859375 545.007813 148.617188 546.527344 C 149.121094 547.289063 151.027344 547.667969 151.027344 549.320313 C 151.027344 550.714844 149.761719 551.347656 148.996094 551.347656 C 148.617188 551.347656 148.238281 551.222656 148.113281 551.097656 C 146.460938 551.730469 146.460938 562.894531 139.867188 562.894531 C 135.046875 562.894531 130.605469 558.960938 128.703125 553.886719 C 128.195313 552.492188 127.054688 551.476563 125.914063 551.476563 C 124.644531 551.476563 124.011719 551.730469 122.488281 553.378906 C 118.300781 557.945313 111.324219 562.007813 102.699219 562.007813 C 100.035156 562.007813 98.007813 561.753906 97.371094 561.753906 C 97.117188 561.753906 97.117188 561.753906 97.117188 561.878906 C 97.117188 562.386719 99.78125 564.539063 105.492188 564.539063 C 119.191406 564.539063 122.488281 556.804688 124.644531 556.804688 C 125.023438 556.804688 125.914063 556.804688 126.421875 558.074219 C 129.589844 565.558594 136.570313 567.207031 140.882813 567.207031 Z M 96.863281 411.035156 C 101.9375 411.035156 104.347656 415.476563 104.347656 420.425781 C 104.347656 422.578125 103.714844 425.878906 102.699219 425.878906 C 101.683594 425.878906 101.8125 423.976563 101.683594 422.453125 C 101.558594 420.296875 101.175781 419.789063 100.414063 419.789063 C 99.148438 419.789063 98.261719 422.960938 98.261719 425.878906 C 98.261719 427.65625 98.515625 429.6875 99.910156 429.6875 C 100.796875 429.6875 101.429688 429.179688 101.9375 428.796875 C 101.558594 432.351563 99.019531 435.394531 95.214844 435.394531 C 88.367188 435.394531 85.828125 427.402344 85.066406 422.835938 C 80.882813 427.148438 77.078125 430.320313 70.351563 430.320313 C 63.882813 430.320313 61.09375 425.621094 61.09375 421.1875 C 61.09375 419.914063 61.472656 416.492188 63.121094 416.492188 C 65.027344 416.492188 63.371094 422.835938 67.183594 422.835938 C 68.070313 422.835938 69.847656 422.074219 70.734375 419.535156 C 71.242188 418.015625 71.621094 416.363281 71.621094 414.96875 C 71.621094 412.8125 71.113281 411.539063 69.59375 411.539063 C 68.324219 411.539063 66.671875 412.558594 66.039063 413.066406 C 67.941406 407.484375 72.507813 404.566406 77.457031 404.566406 C 83.542969 404.566406 86.84375 410.023438 86.84375 416.113281 C 86.84375 416.996094 86.71875 417.886719 86.589844 418.777344 C 89.253906 414.335938 92.933594 411.035156 96.863281 411.035156 Z M 77.328125 364.730469 C 77.328125 364.222656 75.042969 363.84375 71.871094 363.84375 C 66.796875 363.84375 67.4375 368.03125 63.628906 368.03125 C 59.570313 368.03125 60.585938 363.714844 55.511719 363.714844 C 52.339844 363.714844 49.417969 364.222656 49.417969 364.859375 C 49.417969 365.871094 53.101563 365.492188 53.101563 368.03125 C 53.101563 370.695313 45.238281 371.453125 45.238281 373.105469 C 45.238281 373.738281 45.871094 373.867188 46.632813 373.867188 C 48.410156 373.867188 51.074219 373.105469 53.101563 373.105469 C 54.117188 373.105469 55.132813 373.359375 55.132813 374.371094 C 55.132813 376.277344 50.945313 379.828125 50.945313 381.351563 C 50.945313 381.859375 51.324219 381.984375 51.707031 381.984375 C 53.230469 381.984375 55.894531 378.050781 58.429688 378.050781 C 62.488281 378.050781 59.824219 386.804688 62.109375 386.804688 C 64.390625 386.804688 63.371094 378.179688 66.671875 378.179688 C 69.464844 378.179688 71.496094 384.140625 73.269531 384.140625 C 73.777344 384.140625 74.160156 383.761719 74.160156 383.253906 C 74.160156 381.605469 71.871094 378.304688 71.871094 376.148438 C 71.871094 374.753906 72.761719 374.117188 74.03125 374.117188 C 75.808594 374.117188 78.21875 375.261719 79.488281 375.261719 C 79.992188 375.261719 80.496094 375.132813 80.496094 374.496094 C 80.496094 372.722656 73.523438 370.695313 73.523438 368.285156 C 73.523438 365.871094 77.328125 365.871094 77.328125 364.730469 Z M 188.070313 517.730469 C 186.414063 517.730469 177.414063 529.78125 171.578125 529.78125 C 170.183594 529.78125 169.039063 527.117188 169.039063 525.089844 C 169.039063 524.074219 169.675781 523.3125 172.210938 522.679688 C 185.53125 519.632813 182.613281 509.609375 194.03125 509.609375 C 200.371094 509.609375 207.351563 513.925781 207.351563 523.566406 C 207.351563 533.84375 192.761719 546.527344 190.605469 546.527344 C 188.828125 546.527344 186.800781 543.992188 186.800781 542.34375 C 186.800781 541.703125 187.054688 541.074219 188.578125 540.4375 C 196.058594 537.519531 200.371094 530.671875 200.371094 527.117188 C 200.371094 526.355469 199.992188 525.597656 198.976563 525.597656 C 197.578125 525.597656 191.996094 538.535156 185.660156 538.535156 C 181.347656 538.535156 176.90625 534.476563 176.90625 532.699219 C 176.90625 529.527344 189.464844 523.820313 189.464844 519.378906 C 189.464844 517.855469 188.703125 517.730469 188.070313 517.730469 Z M 196.441406 512.910156 C 195.425781 512.910156 194.15625 513.796875 194.15625 515.828125 C 194.15625 518.238281 195.933594 519.632813 196.949219 520.140625 C 197.578125 520.394531 198.34375 520.773438 199.230469 520.773438 C 201.515625 520.773438 203.289063 520.140625 203.289063 518.238281 C 203.289063 515.828125 199.738281 512.910156 196.441406 512.910156 Z M 95.597656 372.722656 C 95.597656 374.117188 100.539063 377.035156 102.828125 377.035156 C 104.09375 377.035156 104.476563 375.261719 104.476563 373.484375 C 104.476563 371.074219 103.460938 371.074219 101.429688 371.074219 C 98.894531 371.074219 95.597656 371.703125 95.597656 372.722656 Z M 103.714844 388.074219 C 103.714844 383.378906 90.902344 374.753906 90.902344 371.328125 C 90.902344 371.074219 90.902344 371.074219 91.03125 370.820313 C 91.914063 368.285156 102.574219 366.507813 102.574219 364.476563 C 102.574219 363.460938 100.671875 363.460938 99.78125 363.460938 C 92.546875 363.460938 81.898438 366.121094 81.898438 368.664063 C 81.898438 371.328125 91.410156 377.671875 91.410156 380.96875 C 91.410156 381.730469 90.902344 382.113281 90.015625 382.113281 C 87.351563 382.113281 81.644531 378.941406 78.851563 378.941406 C 77.710938 378.941406 77.203125 379.699219 77.203125 380.96875 C 77.203125 384.648438 81.644531 391.753906 81.644531 393.910156 C 81.644531 394.164063 81.515625 394.414063 81.261719 394.414063 C 79.867188 394.414063 73.269531 386.679688 70.859375 386.679688 C 70.101563 386.679688 69.972656 387.820313 69.972656 389.46875 L 69.972656 392.132813 C 69.972656 393.910156 69.847656 395.050781 69.085938 395.050781 C 67.054688 395.050781 66.039063 389.34375 64.136719 389.34375 C 62.109375 389.34375 61.726563 399.492188 59.824219 399.492188 C 57.539063 399.492188 59.445313 388.328125 57.289063 388.328125 C 54.878906 388.328125 52.214844 395.6875 50.4375 395.6875 C 49.804688 395.6875 49.671875 395.179688 49.671875 394.539063 C 49.671875 392.386719 51.074219 388.703125 51.074219 386.550781 C 51.074219 385.410156 50.691406 384.777344 49.804688 384.777344 C 47.394531 384.777344 42.066406 388.703125 40.035156 388.703125 C 39.78125 388.703125 39.402344 388.578125 39.402344 388.199219 C 39.402344 386.296875 47.902344 380.460938 47.902344 377.796875 C 47.902344 375.261719 36.230469 376.910156 36.230469 373.992188 C 36.230469 371.453125 44.476563 368.914063 44.476563 366.378906 C 44.476563 364.097656 34.582031 363.078125 30.777344 363.078125 C 26.210938 363.078125 23.796875 363.714844 23.796875 364.984375 C 23.796875 367.015625 34.203125 367.648438 34.203125 369.425781 C 34.203125 371.074219 23.414063 375.640625 23.414063 378.304688 C 23.414063 380.714844 38.640625 378.433594 38.640625 380.96875 C 38.640625 383.507813 25.320313 394.925781 25.320313 398.730469 C 25.320313 399.617188 25.957031 399.996094 26.71875 399.996094 C 30.777344 399.996094 41.304688 392.386719 44.222656 392.386719 C 45.238281 392.386719 45.238281 393.53125 45.238281 394.671875 C 45.238281 396.699219 44.601563 399.746094 44.601563 402.03125 C 44.601563 403.804688 44.984375 405.074219 46.632813 405.074219 C 49.417969 405.074219 52.085938 400.121094 53.988281 400.121094 C 56.527344 400.121094 55.003906 414.589844 58.808594 414.589844 C 61.980469 414.589844 63.246094 398.984375 65.28125 398.984375 C 67.308594 398.984375 68.957031 403.550781 70.859375 403.550781 C 73.144531 403.550781 72.128906 395.6875 74.539063 395.6875 C 77.328125 395.6875 85.066406 404.945313 88.492188 404.945313 C 89.632813 404.945313 90.015625 404.1875 90.015625 403.039063 C 90.015625 398.984375 84.308594 389.597656 84.308594 386.679688 C 84.308594 385.914063 84.558594 385.664063 85.320313 385.664063 C 88.367188 385.664063 97.246094 389.851563 101.429688 389.851563 C 102.828125 389.851563 103.714844 389.089844 103.714844 388.074219 Z M 209.761719 477.515625 C 211.027344 473.578125 212.550781 470.914063 215.085938 466.730469 C 212.550781 465.335938 205.828125 462.539063 205.828125 457.976563 C 205.828125 452.648438 212.421875 448.460938 213.820313 448.460938 C 214.453125 448.460938 214.578125 448.96875 214.578125 449.984375 C 214.578125 452.773438 213.3125 457.34375 213.3125 459.753906 C 213.3125 461.910156 214.703125 463.941406 215.976563 463.941406 C 217.242188 463.941406 220.921875 459.246094 220.921875 454.679688 C 220.921875 446.433594 213.691406 444.023438 211.410156 444.023438 C 209.378906 444.023438 205.574219 447.445313 196.566406 447.445313 C 179.949219 447.445313 176.144531 430.828125 176.144531 423.597656 C 176.144531 423.34375 176.144531 423.214844 176.273438 423.214844 C 176.652344 423.214844 178.300781 425.246094 183.503906 425.246094 C 186.289063 425.246094 188.828125 424.613281 192.761719 424.613281 C 202.023438 424.613281 206.203125 431.078125 211.914063 439.199219 C 215.46875 441.484375 223.714844 444.910156 223.714844 454.804688 C 223.714844 463.558594 214.453125 468.378906 212.296875 477.640625 C 215.847656 477.261719 217.878906 470.914063 221.558594 470.914063 C 223.460938 470.914063 224.21875 472.3125 224.21875 474.722656 C 224.21875 478.148438 222.316406 483.222656 218.640625 486.394531 C 218.640625 486.140625 218.640625 485.761719 218.640625 485.253906 C 218.640625 483.097656 217.878906 479.925781 215.339844 479.925781 C 211.410156 479.925781 210.265625 484.109375 207.984375 487.664063 C 205.828125 479.796875 202.785156 472.566406 197.328125 468.253906 C 191.746094 463.8125 182.359375 466.222656 182.359375 458.105469 C 182.359375 455.945313 183.757813 452.902344 183.757813 450.363281 C 183.757813 449.476563 183.503906 448.714844 183.121094 448.078125 C 190.605469 450.871094 187.941406 455.945313 192.507813 461.023438 C 195.425781 464.320313 203.289063 467.363281 207.855469 480.8125 C 207.984375 480.433594 207.984375 479.414063 207.984375 478.78125 C 207.984375 467.238281 192.761719 455.945313 191.492188 451.253906 C 200.371094 452.269531 201.894531 454.550781 206.078125 466.097656 C 206.96875 468.507813 209.761719 474.597656 209.761719 477.515625 Z M 42.828125 414.203125 C 43.207031 412.941406 43.589844 411.414063 43.589844 409.640625 C 43.589844 405.960938 41.8125 400.253906 36.613281 400.253906 C 33.566406 400.253906 31.410156 402.664063 31.410156 405.578125 C 31.410156 411.671875 37.496094 414.203125 42.828125 414.203125 Z M 36.230469 433.746094 C 33.695313 433.746094 30.902344 430.574219 30.902344 427.65625 C 30.902344 426.132813 32.042969 424.230469 32.933594 424.230469 C 33.1875 424.230469 33.441406 424.359375 33.441406 424.992188 C 33.949219 428.796875 36.359375 430.953125 38.769531 431.96875 C 39.023438 432.222656 39.148438 432.222656 39.148438 432.476563 C 39.148438 432.984375 37.621094 433.746094 36.230469 433.746094 Z M 45.492188 426.386719 C 45.492188 427.527344 44.855469 428.925781 43.589844 428.925781 C 40.792969 428.925781 38.640625 424.863281 38.640625 422.453125 C 38.640625 421.058594 39.527344 420.804688 40.667969 420.804688 C 41.179688 420.804688 41.433594 420.933594 41.8125 421.1875 C 42.574219 421.566406 42.574219 423.089844 43.460938 424.230469 C 43.84375 424.992188 45.492188 425.878906 45.492188 426.386719 Z M 42.699219 418.269531 C 42.191406 418.140625 41.558594 418.140625 41.046875 418.140625 C 38.386719 418.140625 34.960938 418.648438 32.042969 420.679688 C 25.195313 425.117188 26.210938 432.097656 25.195313 433.871094 C 24.941406 434.121094 24.941406 434.378906 24.941406 434.761719 C 24.941406 435.394531 25.703125 436.28125 26.335938 436.28125 C 26.972656 436.28125 27.351563 436.027344 27.730469 436.027344 C 29.636719 436.027344 31.664063 437.425781 34.707031 437.425781 C 36.484375 437.425781 38.640625 436.789063 41.179688 435.523438 C 46.886719 432.730469 49.039063 425.878906 49.039063 424.613281 C 49.039063 423.214844 47.902344 423.46875 46.886719 421.945313 C 45.746094 420.425781 46.253906 419.789063 45.617188 418.777344 C 45.109375 418.394531 44.097656 418.394531 42.699219 418.269531 Z M 50.945313 430.828125 C 49.292969 432.859375 47.394531 436.28125 47.394531 439.703125 C 47.394531 443.894531 50.058594 447.445313 53.988281 447.445313 C 57.792969 447.445313 59.570313 444.148438 59.570313 440.851563 C 59.570313 435.648438 54.878906 431.96875 50.945313 430.828125 Z M 34.328125 415.859375 C 34.328125 415.859375 32.042969 417.632813 29.253906 417.632813 C 25.957031 417.632813 23.289063 415.097656 23.289063 411.539063 C 23.289063 409.132813 24.5625 406.722656 27.351563 405.453125 C 27.351563 405.960938 27.351563 406.34375 27.351563 406.722656 C 27.351563 411.164063 29.761719 414.589844 34.328125 415.859375 Z M 172.59375 461.148438 C 172.59375 459.496094 173.863281 458.230469 175.511719 458.230469 C 177.160156 458.230469 178.554688 459.496094 178.554688 461.148438 C 178.554688 462.925781 177.160156 464.066406 175.511719 464.066406 C 173.863281 464.066406 172.59375 462.925781 172.59375 461.148438 Z M 174.496094 550.460938 C 174.871094 550.460938 175.382813 550.714844 175.382813 552.109375 C 175.382813 553.761719 174.621094 556.039063 171.828125 557.820313 C 169.929688 559.089844 167.265625 560.230469 163.328125 560.355469 C 163.96875 558.453125 164.476563 556.546875 164.476563 554.648438 C 164.476563 554.011719 164.347656 553.507813 164.347656 552.871094 L 165.363281 552.871094 C 171.453125 552.871094 174.117188 550.460938 174.496094 550.460938 Z M 175.128906 542.722656 C 175.765625 542.214844 175.890625 541.328125 175.890625 540.4375 L 175.890625 538.664063 C 175.890625 536.507813 172.59375 535.109375 167.898438 535.109375 C 162.191406 535.109375 159.148438 537.648438 159.148438 538.789063 L 159.148438 542.34375 C 159.148438 543.863281 162.570313 545.261719 166.757813 545.261719 C 170.183594 545.261719 173.101563 544.496094 175.128906 542.722656 Z M 179.191406 543.609375 C 177.160156 545.132813 172.464844 548.683594 164.601563 548.683594 C 160.414063 548.683594 158.511719 547.289063 157.878906 547.289063 C 157.117188 547.289063 156.230469 548.179688 155.46875 549.191406 C 153.566406 551.347656 151.15625 555.28125 151.15625 559.722656 C 151.15625 562.894531 153.566406 565.9375 158.132813 565.9375 C 172.59375 565.9375 183.503906 556.929688 183.503906 549.574219 C 183.503906 545.261719 180.964844 543.609375 179.191406 543.609375 Z M 181.980469 478.273438 C 181.980469 480.179688 182.613281 482.460938 184.515625 482.460938 C 186.164063 482.460938 187.5625 479.925781 187.5625 477.261719 C 187.5625 474.089844 186.925781 471.679688 186.925781 470.535156 C 186.925781 469.902344 187.179688 469.773438 187.5625 469.773438 C 188.703125 469.773438 189.71875 472.945313 190.988281 472.945313 C 192.382813 472.945313 194.539063 470.410156 195.425781 470.410156 C 195.554688 470.410156 195.679688 470.664063 195.679688 470.789063 C 195.679688 471.933594 193.902344 474.597656 193.902344 475.484375 C 193.902344 476.371094 198.34375 476.496094 198.34375 477.386719 C 198.34375 478.527344 193.648438 478.527344 191.367188 479.539063 C 189.210938 480.433594 187.941406 481.574219 187.941406 483.097656 C 187.941406 484.746094 189.464844 484.996094 191.621094 484.996094 C 196.820313 484.996094 200.496094 482.203125 201.640625 482.203125 C 201.894531 482.203125 202.023438 482.335938 202.023438 482.589844 C 202.023438 483.351563 199.359375 486.015625 199.359375 487.15625 C 199.359375 488.425781 204.179688 489.945313 204.179688 490.835938 C 204.050781 490.960938 203.796875 491.089844 203.164063 491.089844 C 202.402344 491.089844 201.007813 490.835938 199.992188 490.835938 C 199.359375 490.835938 198.851563 490.960938 198.597656 491.214844 C 198.089844 491.851563 198.851563 496.035156 197.710938 496.035156 C 196.695313 496.035156 194.03125 486.773438 188.070313 486.773438 C 187.179688 486.773438 186.546875 487.535156 186.546875 488.679688 C 186.546875 491.722656 189.589844 495.402344 192.507813 497.050781 C 193.777344 497.9375 195.933594 498.828125 195.933594 499.203125 C 195.933594 500.222656 190.988281 499.335938 190.988281 500.855469 C 190.988281 502.253906 191.621094 504.410156 191.621094 505.679688 C 191.621094 506.058594 191.621094 506.4375 191.113281 506.4375 C 190.226563 506.4375 187.941406 502.253906 186.800781 502.253906 C 185.914063 502.253906 183.882813 504.789063 182.996094 504.789063 C 182.742188 504.789063 182.613281 504.535156 182.613281 504.28125 C 182.613281 502.507813 185.53125 498.445313 185.53125 494.515625 C 185.53125 492.609375 185.277344 488.550781 182.996094 488.550781 C 181.09375 488.550781 179.0625 491.597656 178.175781 494.515625 C 177.539063 496.164063 177.921875 502.761719 176.777344 502.761719 C 175.511719 502.761719 175.890625 498.445313 174.371094 498.445313 C 173.101563 498.445313 170.691406 500.476563 169.800781 500.476563 C 169.675781 500.476563 169.550781 500.351563 169.550781 500.222656 C 169.550781 499.335938 171.703125 496.289063 171.703125 495.65625 C 171.703125 494.515625 166.632813 494.386719 166.632813 493.371094 C 166.632813 492.863281 168.660156 492.484375 170.5625 492.230469 C 174.496094 491.46875 180.328125 488.550781 180.328125 484.617188 C 180.328125 480.050781 175.890625 478.148438 173.101563 476.246094 C 171.578125 475.355469 169.929688 474.597656 169.929688 473.960938 C 169.929688 473.328125 171.828125 473.328125 172.59375 473.328125 C 173.734375 473.328125 174.871094 473.199219 174.871094 472.3125 C 174.871094 471.550781 174.746094 470.15625 174.746094 469.140625 C 174.746094 468.378906 174.871094 467.746094 175.128906 467.746094 C 176.273438 467.746094 177.921875 471.550781 178.683594 471.550781 C 179.949219 471.550781 181.726563 468.378906 182.867188 468.378906 C 183.246094 468.378906 183.371094 468.632813 183.371094 469.269531 C 183.371094 472.1875 181.980469 475.484375 181.980469 478.273438 Z M 144.8125 455.441406 C 145.703125 462.164063 154.578125 458.738281 154.578125 466.730469 C 154.578125 467.871094 154.328125 469.648438 154.328125 471.171875 C 154.328125 472.820313 154.453125 474.34375 155.722656 474.34375 C 157.117188 474.34375 157.371094 473.328125 157.371094 472.1875 C 157.371094 470.914063 157.117188 469.269531 157.117188 468.507813 C 157.117188 465.714844 159.019531 465.078125 160.164063 465.078125 C 163.078125 465.078125 165.363281 468.121094 169.800781 468.121094 C 168.789063 473.074219 158.511719 471.804688 158.511719 477.261719 C 158.511719 479.925781 161.304688 480.558594 163.078125 480.558594 C 164.730469 480.558594 165.234375 480.304688 165.234375 478.910156 C 165.234375 478.148438 165.109375 477.386719 165.109375 476.753906 C 165.109375 476.496094 165.363281 476.117188 165.742188 476.117188 C 167.390625 476.117188 175.765625 482.589844 175.765625 484.492188 C 175.765625 486.269531 166.886719 488.039063 164.347656 488.039063 C 163.585938 488.039063 163.460938 487.535156 163.460938 487.15625 C 163.460938 486.648438 164.730469 484.996094 164.730469 484.109375 C 164.730469 483.351563 163.585938 482.96875 160.539063 482.96875 C 159.019531 482.96875 157.878906 483.097656 157.878906 484.238281 C 157.878906 486.394531 161.304688 488.933594 161.304688 490.835938 C 161.304688 492.355469 160.414063 493.371094 157.878906 493.371094 C 155.847656 493.371094 152.679688 491.722656 152.679688 488.933594 C 152.679688 486.773438 154.835938 484.617188 154.835938 483.351563 C 154.835938 482.96875 154.578125 482.335938 153.691406 482.335938 C 150.773438 482.335938 150.015625 489.945313 139.867188 490.835938 C 141.515625 489.3125 142.910156 487.664063 142.910156 484.363281 C 142.910156 482.714844 142.402344 481.320313 142.402344 479.539063 C 142.402344 477.261719 143.546875 476.117188 145.066406 476.117188 C 147.984375 476.117188 149.378906 480.179688 151.28125 480.179688 C 152.296875 480.179688 153.3125 479.164063 153.3125 477.769531 C 153.3125 471.933594 142.023438 472.691406 142.023438 464.445313 C 142.023438 462.164063 142.785156 459.371094 144.8125 455.441406 Z M 159.65625 506.058594 C 159.65625 507.074219 160.414063 507.960938 161.558594 507.960938 C 162.699219 507.960938 163.460938 506.820313 163.460938 505.679688 C 163.460938 504.027344 162.066406 501.746094 160.664063 501.746094 C 160.035156 501.746094 160.289063 502.632813 160.035156 503.648438 C 160.035156 504.410156 159.65625 505.425781 159.65625 506.058594 Z M 155.59375 495.65625 C 163.714844 497.179688 168.152344 503.394531 168.152344 509.101563 C 168.152344 513.035156 165.742188 516.714844 161.304688 516.714844 C 157.371094 516.714844 154.453125 514.050781 154.453125 509.609375 C 154.453125 506.4375 157.117188 503.015625 157.117188 499.589844 C 157.117188 498.320313 156.738281 497.050781 155.59375 495.65625 Z M 145.320313 508.851563 C 146.078125 509.609375 146.203125 510.371094 146.203125 511.261719 C 146.203125 512.402344 145.703125 513.671875 145.703125 514.9375 C 145.703125 516.84375 147.097656 518.492188 149.121094 518.492188 C 151.28125 518.492188 152.804688 516.714844 152.804688 514.683594 C 152.804688 511.765625 149.761719 508.851563 145.320313 508.851563 Z M 170.945313 503.902344 C 171.578125 504.789063 171.703125 505.679688 171.703125 506.4375 C 171.703125 508.597656 170.308594 510.621094 170.308594 512.78125 C 170.308594 515.445313 172.210938 517.476563 175.128906 517.476563 C 178.300781 517.476563 180.585938 514.9375 180.585938 511.894531 C 180.585938 507.835938 176.777344 504.28125 170.945313 503.902344 Z M 147.097656 499.84375 C 150.648438 500.222656 151.535156 501.492188 151.535156 502.507813 C 151.535156 504.15625 150.015625 504.789063 148.492188 504.789063 C 147.476563 504.789063 146.203125 504.535156 144.8125 504.535156 C 143.164063 504.535156 141.515625 504.914063 139.992188 506.566406 C 141.007813 506.691406 142.53125 507.453125 142.53125 508.976563 C 142.53125 513.414063 129.972656 509.738281 129.972656 521.28125 C 129.972656 527.496094 136.441406 534.097656 146.078125 534.097656 C 151.027344 534.097656 154.199219 532.445313 154.199219 530.671875 C 154.199219 529.148438 151.535156 530.164063 151.535156 528.894531 C 151.535156 528.386719 152.425781 527.371094 152.425781 526.484375 C 152.425781 526.101563 152.171875 525.46875 151.535156 525.46875 C 150.140625 525.46875 147.476563 527.621094 142.148438 527.621094 C 137.964844 527.621094 133.777344 525.214844 133.777344 522.039063 C 133.777344 521.28125 134.15625 520.902344 134.664063 520.902344 C 135.046875 520.902344 135.679688 521.28125 136.1875 521.28125 C 136.695313 521.28125 136.820313 520.902344 136.820313 520.015625 C 136.820313 519.253906 136.820313 516.84375 138.21875 516.84375 C 139.738281 516.84375 142.53125 522.296875 153.3125 522.296875 C 156.863281 522.296875 163.714844 521.535156 166.378906 519.253906 C 166.246094 527.753906 159.527344 539.039063 145.574219 539.039063 C 130.988281 539.039063 123.246094 527.371094 123.246094 516.589844 C 123.246094 504.789063 133.015625 494.007813 146.203125 494.007813 C 149.632813 494.007813 152.550781 495.148438 152.550781 496.539063 C 152.550781 498.574219 147.476563 497.433594 147.097656 499.84375 Z M 90.902344 420.171875 C 90.902344 418.902344 90.523438 418.648438 90.269531 418.648438 C 89.507813 418.648438 88.621094 419.535156 87.351563 421.566406 C 87.476563 424.359375 87.984375 425.621094 88.746094 425.621094 C 89.632813 425.621094 90.902344 422.960938 90.902344 420.171875 Z M 80.246094 423.46875 C 81.136719 423.46875 82.148438 422.453125 84.179688 420.171875 C 84.308594 419.15625 84.308594 418.269531 84.308594 417.121094 C 84.308594 415.605469 83.667969 413.828125 82.785156 413.828125 C 80.496094 413.828125 79.359375 420.039063 79.359375 421.695313 C 79.359375 422.578125 79.738281 423.46875 80.246094 423.46875 Z M 92.933594 430.320313 C 94.835938 430.320313 96.992188 422.835938 96.992188 418.140625 C 96.992188 417.253906 96.863281 416.113281 96.355469 416.113281 C 94.707031 416.113281 92.039063 423.851563 92.039063 428.035156 C 92.039063 429.6875 92.421875 430.320313 92.933594 430.320313 Z M 73.90625 426.007813 C 76.570313 426.007813 79.488281 411.796875 79.488281 409.386719 C 79.488281 408.753906 79.359375 408.246094 78.726563 408.246094 C 76.316406 408.246094 73.015625 421.820313 73.015625 424.863281 C 73.015625 425.371094 73.144531 426.007813 73.90625 426.007813 Z M 82.277344 431.96875 C 78.980469 431.96875 78.851563 436.027344 78.851563 444.148438 C 76.316406 438.820313 72.257813 432.984375 67.4375 432.984375 C 64.136719 432.984375 62.871094 435.269531 62.871094 439.074219 C 62.871094 439.835938 62.996094 440.976563 63.121094 441.609375 C 63.503906 440.34375 64.773438 439.835938 66.289063 439.835938 C 69.71875 439.835938 73.652344 442.371094 76.316406 445.925781 C 73.269531 445.289063 70.351563 444.78125 67.941406 444.78125 C 66.289063 444.78125 64.898438 444.910156 63.757813 445.414063 C 61.472656 446.433594 58.429688 449.859375 58.429688 454.933594 C 58.429688 455.691406 58.554688 456.453125 58.683594 457.46875 C 61.472656 451.378906 68.703125 448.714844 73.269531 448.714844 C 74.285156 448.714844 74.917969 448.714844 75.554688 448.84375 C 73.144531 450.996094 72.507813 454.804688 72.382813 457.34375 C 72.257813 458.609375 71.871094 458.738281 70.988281 458.738281 C 70.988281 461.273438 73.015625 465.078125 73.015625 466.984375 C 73.015625 467.746094 72.636719 468.378906 72.257813 468.507813 C 72.257813 471.933594 75.679688 474.34375 75.679688 476.496094 C 75.679688 477.132813 75.554688 477.515625 75.296875 477.769531 C 75.554688 479.164063 79.234375 481.574219 79.738281 482.589844 C 80.496094 484.238281 81.007813 484.363281 81.390625 484.363281 C 82.65625 484.363281 84.8125 482.84375 84.8125 481.445313 C 84.8125 480.9375 84.433594 480.433594 84.179688 480.179688 C 82.65625 479.164063 81.898438 476.753906 81.261719 475.230469 C 80.753906 475.230469 79.992188 474.976563 79.738281 474.089844 C 79.488281 473.074219 79.359375 469.523438 78.726563 467.746094 C 77.710938 467.492188 77.203125 467.109375 77.203125 464.953125 C 77.203125 463.941406 77.835938 460.007813 77.835938 458.609375 C 77.328125 458.609375 76.695313 458.230469 76.695313 457.34375 C 76.695313 454.933594 79.234375 452.902344 79.867188 449.730469 C 84.308594 453.027344 85.449219 456.328125 85.449219 459.246094 C 85.449219 460.894531 85.195313 462.289063 84.941406 463.6875 C 88.113281 462.164063 93.058594 459.753906 93.058594 454.804688 C 93.058594 451.886719 91.789063 448.714844 82.910156 447.445313 C 85.703125 446.433594 89.128906 445.925781 91.914063 445.925781 C 96.992188 445.925781 99.78125 447.445313 100.414063 450.996094 C 101.429688 449.476563 102.191406 447.699219 102.191406 446.050781 C 102.191406 442.246094 99.019531 439.703125 94.960938 439.703125 C 90.269531 439.703125 86.082031 442.246094 81.515625 445.289063 C 83.542969 441.105469 84.941406 438.566406 87.476563 438.566406 C 87.859375 438.566406 88.238281 438.695313 88.621094 438.695313 C 87.730469 435.269531 84.179688 431.96875 82.277344 431.96875 Z M 32.804688 383.507813 C 32.804688 385.15625 26.84375 390.359375 24.816406 390.359375 C 23.921875 390.359375 23.796875 389.34375 23.796875 388.578125 C 23.796875 386.933594 24.433594 384.777344 25.320313 384.140625 C 26.335938 383.121094 28.621094 382.746094 30.394531 382.746094 C 31.539063 382.746094 32.804688 382.871094 32.804688 383.507813 Z M 213.183594 487.914063 C 217.117188 487.914063 220.289063 492.992188 220.289063 498.953125 C 220.289063 505.171875 217.242188 512.019531 212.039063 516.714844 C 211.914063 506.183594 199.105469 509.609375 199.105469 501.996094 C 199.105469 498.699219 201.386719 496.539063 204.179688 496.539063 C 206.714844 496.539063 208.617188 497.179688 210.011719 498.574219 C 208.617188 497.304688 207.984375 495.402344 207.984375 493.621094 C 207.984375 490.703125 209.886719 487.914063 213.183594 487.914063 Z M 155.59375 408.496094 C 154.960938 407.484375 152.679688 406.976563 151.535156 406.976563 C 148.113281 406.976563 145.828125 409.386719 145.320313 411.539063 C 145.066406 410.78125 144.8125 409.769531 144.8125 408.878906 C 144.8125 405.453125 147.097656 401.269531 152.804688 401.269531 C 157.753906 401.269531 159.65625 403.933594 160.414063 403.933594 C 161.175781 403.933594 161.9375 403.171875 162.570313 403.171875 C 163.460938 403.171875 163.460938 404.441406 163.460938 405.328125 C 163.460938 408.496094 162.066406 413.828125 158.511719 415.859375 C 157.878906 414.460938 156.738281 412.941406 154.703125 412.050781 C 154.074219 411.796875 153.945313 411.414063 153.945313 410.910156 C 153.945313 410.023438 154.703125 409.007813 155.59375 408.496094 Z M 143.796875 414.203125 C 145.828125 416.113281 147.730469 416.996094 149.886719 416.996094 C 150.648438 416.996094 151.664063 416.746094 152.296875 416.746094 C 152.933594 416.746094 153.4375 416.996094 153.4375 417.632813 C 153.4375 418.394531 152.679688 419.789063 151.664063 420.550781 C 152.679688 421.058594 153.691406 421.1875 154.703125 421.1875 C 159.148438 421.1875 164.222656 418.394531 164.222656 411.414063 C 165.109375 412.558594 165.742188 415.222656 165.742188 416.363281 C 165.742188 424.863281 159.527344 428.035156 153.691406 428.035156 C 150.015625 428.035156 148.113281 426.769531 147.730469 426.769531 C 146.203125 426.769531 146.203125 429.8125 145.320313 429.6875 C 143.414063 429.433594 141.894531 425.371094 141.894531 421.1875 C 141.894531 418.777344 142.402344 416.113281 143.796875 414.203125 Z M 89.886719 391.496094 C 89.886719 394.289063 99.527344 407.613281 101.429688 407.613281 C 102.953125 407.613281 104.222656 404.820313 104.222656 402.535156 C 104.222656 401.902344 103.96875 401.269531 103.714844 400.761719 C 102.320313 398.859375 92.421875 391.117188 90.269531 391.117188 C 90.015625 391.117188 89.886719 391.371094 89.886719 391.496094 Z M 202.023438 385.15625 C 202.023438 379.699219 188.828125 378.304688 188.828125 377.035156 C 188.828125 376.023438 196.1875 374.246094 199.992188 374.246094 C 194.15625 366.761719 185.785156 367.523438 185.785156 366.253906 C 185.785156 365.492188 191.996094 363.84375 197.835938 363.84375 C 202.65625 363.84375 207.097656 364.984375 207.097656 368.664063 C 207.097656 370.695313 205.445313 372.722656 205.445313 375.894531 C 205.445313 377.539063 206.335938 379.066406 208.617188 379.066406 C 211.027344 379.066406 211.535156 376.53125 211.535156 373.738281 C 211.535156 371.453125 211.15625 369.804688 211.15625 368.664063 C 211.15625 365.492188 213.4375 363.203125 216.609375 363.203125 C 219.273438 363.203125 219.78125 364.476563 223.714844 364.476563 C 221.683594 365.617188 220.796875 367.902344 220.796875 369.039063 C 220.796875 372.34375 222.953125 374.496094 222.953125 381.222656 C 222.953125 393.53125 211.410156 397.84375 197.328125 397.84375 C 193.523438 397.84375 189.335938 397.589844 185.40625 396.953125 C 184.769531 396.828125 184.515625 396.699219 184.515625 396.320313 C 184.515625 395.304688 190.097656 394.796875 190.097656 389.722656 C 190.097656 387.820313 189.464844 385.914063 189.464844 385.28125 C 189.464844 384.902344 189.71875 384.648438 190.097656 384.648438 C 191.238281 384.648438 193.523438 389.089844 197.964844 389.089844 C 199.105469 389.089844 202.023438 388.703125 202.023438 385.15625 Z M 215.085938 377.289063 C 215.085938 384.269531 210.011719 389.46875 201.007813 390.992188 C 202.023438 391.117188 202.910156 391.117188 203.796875 391.117188 C 214.453125 391.117188 218.386719 386.296875 218.386719 382.238281 C 218.386719 379.953125 217.117188 377.925781 215.085938 377.289063 Z M 207.730469 439.835938 C 207.730469 438.1875 203.539063 438.058594 203.164063 433.492188 C 203.164063 432.730469 202.910156 431.460938 202.023438 431.460938 C 200.621094 431.460938 201.769531 435.777344 200.246094 435.777344 C 196.566406 435.777344 195.425781 428.796875 194.15625 428.796875 C 193.777344 428.796875 193.394531 429.050781 193.394531 429.941406 C 193.394531 430.828125 193.523438 431.335938 193.523438 432.351563 C 193.523438 433.363281 193.394531 433.996094 192.382813 433.996094 C 190.351563 433.996094 188.449219 429.179688 186.671875 429.179688 C 186.289063 429.179688 185.914063 429.433594 185.914063 429.8125 C 185.914063 430.699219 187.433594 432.476563 187.433594 433.238281 C 187.433594 435.140625 182.359375 434.121094 182.359375 435.648438 C 182.359375 436.410156 183.121094 436.664063 184.007813 436.664063 C 185.660156 436.664063 188.195313 435.902344 189.589844 435.902344 C 190.351563 435.902344 191.492188 436.027344 191.492188 437.039063 C 191.492188 438.1875 188.703125 439.578125 188.703125 440.597656 C 188.703125 441.105469 189.210938 441.230469 189.589844 441.230469 C 191.621094 441.230469 195.425781 437.679688 197.964844 437.679688 C 198.46875 437.679688 199.613281 437.804688 199.613281 438.566406 C 199.613281 439.578125 196.949219 441.359375 196.949219 442.878906 C 196.949219 443.261719 197.203125 443.640625 197.710938 443.640625 C 199.105469 443.640625 201.007813 440.089844 203.539063 440.089844 C 204.558594 440.089844 206.078125 440.46875 206.84375 440.46875 C 207.476563 440.46875 207.730469 440.089844 207.730469 439.835938 Z M 152.039063 380.460938 C 152.039063 379.699219 149.121094 378.050781 149.121094 377.035156 C 149.121094 376.910156 149.253906 376.910156 149.507813 376.910156 C 150.269531 376.910156 151.789063 377.164063 152.933594 377.164063 C 153.945313 377.164063 154.074219 372.851563 154.835938 372.851563 C 155.46875 372.851563 156.355469 376.910156 157.246094 376.910156 C 158.257813 376.910156 160.035156 375.769531 160.921875 375.769531 C 161.050781 375.769531 161.175781 375.894531 161.175781 376.023438 C 161.175781 376.53125 159.273438 378.6875 159.273438 379.320313 C 159.273438 379.953125 163.585938 380.84375 163.585938 381.476563 C 163.585938 382.238281 159.148438 382.113281 159.148438 382.871094 C 159.148438 383.378906 160.796875 385.535156 160.796875 386.296875 C 160.796875 386.425781 160.664063 386.550781 160.539063 386.550781 C 159.910156 386.550781 157.496094 385.410156 156.863281 385.410156 C 155.976563 385.410156 154.578125 388.578125 153.945313 388.578125 C 153.691406 388.578125 153.4375 388.328125 153.4375 387.949219 L 153.3125 384.777344 C 153.3125 384.523438 153.183594 384.140625 152.804688 384.140625 C 151.914063 384.140625 150.015625 384.140625 149.507813 384.140625 C 149.121094 384.140625 148.996094 384.015625 148.996094 383.886719 C 148.996094 383.253906 152.039063 381.097656 152.039063 380.460938 Z M 167.265625 395.304688 C 161.8125 395.304688 158.257813 392.515625 158.257813 391.117188 C 158.257813 390.484375 158.765625 389.976563 159.273438 389.976563 C 161.050781 389.976563 164.730469 392.640625 165.996094 392.640625 C 166.378906 392.640625 166.503906 392.515625 166.503906 392.007813 C 166.503906 390.613281 165.234375 388.328125 165.234375 387.058594 C 165.234375 386.804688 165.488281 386.550781 165.871094 386.550781 C 168.027344 386.550781 171.199219 387.441406 172.71875 387.441406 C 173.355469 387.441406 173.480469 387.058594 173.480469 386.804688 C 173.480469 385.15625 168.40625 381.730469 168.40625 380.714844 C 168.40625 379.828125 174.746094 378.433594 174.746094 376.910156 C 174.746094 375.386719 166.121094 376.53125 166.121094 375.007813 C 166.121094 373.867188 167.773438 372.089844 167.773438 371.199219 C 167.773438 370.820313 167.519531 370.695313 166.886719 370.695313 C 166.246094 370.695313 162.445313 372.089844 160.921875 372.089844 C 160.164063 372.089844 159.273438 371.960938 159.273438 370.820313 C 159.273438 369.039063 162.320313 367.140625 167.011719 367.140625 C 174.746094 367.140625 179.316406 372.46875 179.316406 381.351563 C 179.316406 392.515625 171.453125 395.304688 167.265625 395.304688 Z M 114.621094 529.65625 C 114.621094 530.414063 114.371094 531.179688 113.734375 531.9375 C 112.972656 530.414063 110.5625 529.65625 109.421875 529.65625 C 101.429688 529.65625 104.476563 541.199219 95.976563 541.199219 C 92.292969 541.199219 92.039063 540.691406 90.777344 540.691406 C 90.140625 540.691406 89.886719 540.945313 89.886719 541.453125 C 89.886719 543.484375 92.804688 548.429688 100.796875 548.429688 C 108.789063 548.429688 116.398438 543.484375 116.398438 537.519531 C 116.398438 536.507813 116.144531 535.363281 115.765625 534.222656 C 116.019531 533.84375 116.78125 533.460938 117.539063 533.460938 C 118.808594 533.460938 119.445313 534.855469 120.585938 534.855469 C 121.855469 534.855469 122.867188 533.96875 122.867188 532.699219 C 122.867188 531.683594 122.234375 531.050781 121.347656 530.539063 C 121.980469 530.035156 122.359375 529.273438 122.359375 528.515625 C 122.359375 527.117188 121.472656 525.847656 119.949219 525.847656 C 119.191406 525.847656 118.808594 526.101563 118.175781 526.609375 C 118.046875 525.214844 117.289063 523.945313 115.765625 523.945313 C 114.621094 523.945313 113.734375 524.835938 113.734375 526.101563 C 113.734375 527.371094 114.621094 528.386719 114.621094 529.65625 Z M 93.695313 532.699219 C 91.410156 532.699219 87.984375 530.164063 87.984375 528.765625 C 87.984375 527.621094 88.996094 526.992188 89.886719 526.992188 C 91.789063 526.992188 95.34375 529.402344 95.34375 531.433594 C 95.34375 531.9375 94.960938 532.699219 93.695313 532.699219 Z M 72.128906 515.191406 C 78.34375 516.84375 81.390625 520.140625 82.023438 524.074219 C 82.65625 527.878906 83.414063 531.050781 84.941406 532.574219 C 86.84375 534.730469 90.648438 536.632813 93.945313 536.632813 C 96.738281 536.632813 99.019531 535.746094 99.019531 533.203125 C 99.019531 530.414063 95.214844 524.074219 89.632813 524.074219 C 89.128906 524.074219 88.367188 524.199219 87.605469 524.199219 C 86.96875 524.199219 85.957031 524.074219 85.320313 523.4375 C 84.054688 522.425781 83.667969 516.589844 81.261719 513.035156 C 78.726563 509.230469 75.933594 508.089844 72.128906 508.089844 C 69.464844 508.089844 66.417969 509.609375 66.417969 511.765625 C 66.417969 513.035156 67.054688 514.050781 72.128906 515.191406 Z M 111.070313 505.804688 C 111.070313 502.253906 103.839844 502.253906 103.839844 496.925781 C 103.839844 495.527344 104.730469 493.371094 106.378906 490.960938 C 107.140625 495.019531 108.789063 497.050781 112.214844 498.445313 C 119.191406 500.984375 120.078125 504.789063 120.078125 508.976563 C 120.078125 515.953125 115.257813 524.703125 102.574219 524.703125 C 92.546875 524.703125 85.320313 515.574219 85.320313 507.960938 C 85.320313 505.933594 85.828125 503.648438 87.097656 503.648438 C 88.367188 503.648438 88.746094 504.535156 89.632813 505.425781 C 93.1875 508.976563 96.992188 509.863281 102.445313 509.863281 C 107.394531 509.863281 111.070313 507.835938 111.070313 505.804688 Z M 111.324219 511.386719 C 108.660156 512.402344 107.648438 512.402344 107.648438 515.066406 C 107.648438 516.078125 107.394531 517.476563 107.394531 518.109375 C 107.394531 518.996094 107.648438 519.632813 108.660156 519.632813 C 111.453125 519.632813 115.890625 514.8125 115.890625 510.878906 C 115.890625 509.738281 115.257813 509.230469 114.621094 509.230469 C 113.988281 509.230469 113.226563 510.496094 111.324219 511.386719 Z M 86.589844 472.1875 C 86.589844 467.109375 98.386719 464.445313 98.386719 458.355469 C 98.386719 457.34375 98.007813 455.566406 97.371094 454.296875 C 101.429688 456.453125 104.476563 460.261719 104.476563 463.433594 C 104.476563 468.761719 98.894531 471.296875 98.894531 474.597656 C 98.894531 478.527344 104.855469 479.164063 104.855469 483.984375 C 104.855469 487.914063 99.148438 492.484375 99.148438 497.558594 C 99.148438 501.617188 101.9375 504.789063 106.246094 505.425781 C 104.855469 505.679688 103.585938 505.933594 102.320313 505.933594 C 94.453125 505.933594 86.335938 499.460938 86.335938 491.722656 C 86.335938 487.914063 87.984375 484.617188 90.523438 482.203125 C 92.679688 484.109375 94.835938 485.378906 96.230469 485.378906 C 97.496094 485.378906 98.007813 484.746094 98.007813 483.730469 C 98.007813 480.9375 86.589844 478.273438 86.589844 472.1875 Z M 86.589844 472.1875 "/>
<g clip-path="url(#clip1)" clip-rule="nonzero">
<path style=" stroke:none;fill-rule:evenodd;fill:rgb(0%,0%,0%);fill-opacity:1;" d="M 102.574219 638.375 C 104.855469 638.375 108.535156 637.617188 111.578125 632.917969 C 109.929688 629.117188 108.660156 621.503906 108.535156 618.714844 C 107.648438 604.507813 113.101563 591.183594 119.0625 590.804688 C 123.503906 590.546875 126.929688 594.738281 127.308594 601.460938 C 128.449219 619.09375 122.613281 626.453125 119.570313 632.792969 C 120.078125 635.335938 124.265625 639.519531 128.195313 639.519531 C 129.71875 639.519531 131.496094 638.757813 131.871094 638.25 C 131.621094 637.238281 131.367188 635.835938 131.367188 633.9375 C 131.367188 623.664063 137.964844 615.035156 143.671875 615.035156 C 148.113281 615.035156 150.773438 621.121094 150.773438 625.058594 C 150.773438 629.753906 146.84375 633.558594 141.007813 637.238281 C 142.023438 638.25 143.925781 638.886719 145.574219 638.886719 C 153.820313 638.886719 158.257813 628.863281 161.429688 619.601563 C 162.066406 617.828125 163.078125 615.414063 165.109375 615.414063 C 168.660156 615.414063 170.183594 638.5 176.019531 638.5 C 178.429688 638.5 180.453125 633.429688 180.453125 629.371094 C 180.453125 626.453125 179.441406 626.199219 179.441406 622.011719 C 179.441406 617.320313 181.980469 613.257813 185.40625 613.257813 C 187.433594 613.257813 188.195313 615.414063 188.195313 617.828125 C 188.195313 627.214844 181.347656 644.59375 171.453125 644.59375 C 163.96875 644.59375 164.601563 631.78125 161.9375 631.78125 C 159.019531 631.78125 154.835938 644.847656 140.371094 644.847656 C 138.089844 644.847656 135.554688 643.582031 133.523438 641.292969 C 129.972656 643.582031 127.054688 644.59375 123.757813 644.59375 C 118.300781 644.59375 115.890625 639.140625 113.734375 639.140625 C 111.070313 639.140625 108.152344 644.847656 99.402344 644.847656 C 92.421875 644.847656 91.15625 635.460938 88.746094 635.460938 C 86.464844 635.460938 83.164063 644.847656 79.488281 644.847656 C 73.398438 644.847656 72.003906 628.609375 66.542969 628.609375 C 62.949219 628.609375 52.515625 640.789063 47.398438 643.972656 C 45.421875 645.199219 43.09375 644.828125 43.335938 641.929688 C 43.589844 639.902344 45.363281 634.574219 45.996094 631.910156 C 47.265625 627.46875 48.28125 622.648438 48.914063 620.996094 C 49.546875 619.476563 51.199219 618.335938 52.46875 618.460938 C 53.101563 618.585938 53.355469 619.730469 53.484375 620.746094 C 54.242188 624.417969 55.257813 628.101563 56.398438 628.101563 C 58.554688 628.101563 65.28125 615.035156 69.210938 615.035156 C 74.03125 615.035156 74.664063 635.585938 81.261719 635.585938 C 83.414063 635.585938 85.066406 632.917969 86.464844 629.753906 C 86.71875 624.292969 88.113281 616.558594 92.546875 616.558594 C 95.597656 616.558594 97.117188 623.410156 94.835938 629.371094 C 94.835938 636.601563 99.527344 638.375 102.574219 638.375 Z M 211.914063 624.546875 C 211.914063 620.996094 208.492188 615.792969 203.539063 615.792969 C 196.949219 615.792969 190.480469 623.027344 190.480469 632.917969 C 190.480469 641.804688 196.058594 644.847656 201.640625 644.847656 C 211.28125 644.847656 217.117188 636.855469 220.160156 630.257813 C 221.683594 634.699219 222.570313 644.847656 226.246094 644.847656 C 227.644531 644.847656 228.660156 644.082031 230.4375 640.15625 C 234.871094 630.257813 239.0625 618.96875 244.898438 618.96875 C 247.179688 618.96875 245.785156 623.027344 251.113281 623.027344 C 253.648438 623.027344 255.296875 620.996094 255.296875 618.585938 C 255.296875 615.164063 252.253906 612.621094 247.5625 612.621094 C 233.859375 612.621094 230.945313 633.171875 228.660156 633.171875 C 224.980469 633.171875 226.246094 616.683594 223.585938 616.683594 C 221.175781 616.683594 220.035156 619.476563 219.78125 620.746094 C 217.878906 628.355469 212.421875 639.394531 204.179688 639.394531 C 202.277344 639.394531 198.976563 638.632813 198.976563 636.730469 C 198.976563 634.699219 211.914063 634.445313 211.914063 624.546875 Z M 122.613281 605.394531 C 122.359375 601.335938 121.347656 599.429688 119.191406 599.558594 C 116.273438 599.8125 114.878906 608.945313 115.511719 618.585938 C 115.890625 624.929688 116.78125 625.820313 117.664063 625.820313 C 119.316406 625.691406 123.121094 614.402344 122.613281 605.394531 Z M 98.765625 596.765625 C 98.640625 594.484375 96.738281 592.835938 94.328125 592.835938 C 91.535156 592.835938 88.871094 595.753906 89.128906 599.429688 C 89.128906 601.589844 90.777344 603.746094 93.566406 603.746094 C 96.738281 603.746094 99.148438 600.191406 98.765625 596.765625 Z M 144.304688 626.582031 C 144.304688 624.167969 143.039063 622.140625 141.386719 622.140625 C 140.121094 622.140625 137.074219 623.535156 137.074219 628.230469 C 137.074219 631.910156 138.34375 633.683594 138.976563 634.445313 C 143.164063 633.046875 144.304688 629.621094 144.304688 626.582031 Z M 201.640625 621.632813 C 204.6875 621.632813 205.574219 625.3125 204.8125 627.46875 C 204.050781 629.753906 201.515625 632.164063 197.328125 632.917969 C 196.441406 630.765625 196.058594 621.632813 201.640625 621.632813 Z M 0.203125 624.039063 C 0.078125 617.953125 0.328125 611.992188 2.871094 603.492188 C 4.136719 598.921875 5.40625 597.402344 9.460938 596.511719 C 12.636719 595.878906 12.382813 599.304688 11.621094 603.238281 C 10.101563 611.992188 9.335938 616.304688 9.847656 626.199219 C 10.480469 636.730469 15.296875 640.789063 20.628906 640.789063 C 28.492188 641.042969 32.042969 634.445313 33.441406 624.929688 C 34.582031 617.320313 33.695313 613.640625 33.058594 611.230469 C 31.894531 608.3125 30.578125 605.453125 30.90625 602.261719 C 31.292969 598.445313 33.429688 596.507813 35.214844 595.878906 C 37.878906 595.117188 38.894531 596.511719 39.910156 599.558594 C 41.179688 604.253906 41.304688 610.339844 40.921875 619.222656 C 40.289063 631.148438 34.328125 645.738281 19.359375 645.355469 C 6.542969 645.101563 0.835938 636.730469 0.203125 624.039063 Z M 0.203125 624.039063 "/>
</g>
</svg>
